<svg fill="none" height="32" viewBox="0 0 122 32" width="122" xmlns="http://www.w3.org/2000/svg" xmlns:xlink="http://www.w3.org/1999/xlink"><clipPath id="a"><path d="m0 0h122v32h-122z"/></clipPath><g clip-path="url(#a)" fill="#000"><path d="m13.4509 0h-13.4509v32z"/><path d="m22.8887 0h13.4509v32z"/><path d="m18.1821 11.8047 8.5414 20.1952h-5.6046l-2.5557-6.4267h-6.2771z"/><path d="m58.2872 20.3514 1.5693 4.463c.023.0506.0613.0928.1095.1208s.104.0404.1595.0354h3.0489c.1794 0 .2018 0 .1794-.2454l-6.2996-17.4059c0-.13389 0-.15621-.2017-.15621h-3.8111c-.0227-.00023-.0451.00442-.0657.01363-.0207.0092-.0391.02275-.054.03971s-.026.03693-.0324.05854-.0081.04434-.0049.06665c.0132.50211-.0705 1.00208-.2466 1.4728l-5.5597 15.95538c0 .2008 0 .2678.1794.2678h2.735c.0341.0063.0692.0055.1029-.0026.0338-.008.0654-.0231.093-.0441.0275-.0211.0502-.0477.0667-.0781.0164-.0304.0263-.0639.0288-.0984l1.5021-4.463zm-5.6718-2.9456c.8295-2.477 1.9056-5.6681 2.3539-7.47562.5381 1.89682 1.8159 5.66802 2.3988 7.47562z"/><path d="m71.4244 25.3053c1.7658.0078 3.5139-.3493 5.1338-1.0488.1569 0 .1794 0 .1794-.2455 0-.4909 0-1.205 0-1.7406v-16.37933c0-.11158 0-.15621-.1346-.15621h-3.0713c-.1345 0-.1793 0-.1793.17853v5.55651h-1.1657c-.9847-.087-1.9767.0316-2.9127.3479-.9361.3164-1.7955.8237-2.5234 1.4894-.7279.6658-1.3082 1.4753-1.704 2.377-.3957.9017-.5981 1.8756-.5942 2.8596-.0587.9185.0829 1.8388.4151 2.6977.3322.859.847 1.6362 1.5093 2.2785s1.4563 1.1344 2.3275 1.4425c.8713.3082 1.7992.4251 2.7201.3428zm1.928-2.9902c-.5159.1553-1.0528.2306-1.5917.2231-.5494.0376-1.1004-.0467-1.6132-.2467-.5127-.2-.9745-.5109-1.3519-.9101-.3775-.3992-.6612-.8768-.8308-1.3984-.1695-.5216-.2207-1.0741-.1497-1.6177-.0296-.5625.0607-1.1249.2649-1.6502.2042-.5254.5178-1.0018.92-1.3979.4023-.3962.8841-.7033 1.414-.901s1.0958-.2816 1.6606-.2462c.4346-.0097.8674.0583 1.2778.2008z"/><path d="m86.1991 11.4033c-.9137-.0271-1.823.1366-2.6692.4805-.8463.3439-1.6109.8604-2.2444 1.5163-.6336.6559-1.1221 1.4366-1.4342 2.2918s-.4407 1.766-.3777 2.6737c-.075.9011.0386 1.8078.3335 2.6629.295.8551.7649 1.6401 1.38 2.3052.6152.6652 1.3623 1.1962 2.1941 1.5593.8318.3632 1.7302.5507 2.6385.5507s1.8067-.1875 2.6385-.5507c.8318-.3631 1.5789-.8941 2.1941-1.5593.6152-.6651 1.0851-1.4501 1.38-2.3052.295-.8551.4085-1.7618.3335-2.6629.0844-.8825-.0175-1.7728-.2992-2.6139-.2816-.841-.7368-1.6141-1.3363-2.2697s-1.3301-1.1792-2.1449-1.5371c-.8148-.358-1.6957-.5425-2.5863-.5416zm-.157 2.7224c2.2419 0 3.2955 1.9861 3.2955 4.2399 0 2.7894-1.4572 4.173-3.1385 4.173-2.0625 0-3.2955-1.7183-3.2955-4.2176s1.3002-4.1953 3.1385-4.1953z"/><path d="m95.7477 5.73486c-.1121 0-.1793 0-.1793.17853v18.63321c.0064.0527.0263.1029.0577.1458.0313.043.0732.0773.1216.0996 1.3229.3968 2.6985.5924 4.0801.5802 1.0292.0714 2.0622-.0712 3.0332-.4185.972-.3474 1.859-.8919 2.608-1.5991.748-.7072 1.341-1.5615 1.74-2.5088s.595-1.9668.577-2.9938c.042-.8491-.095-1.6975-.403-2.4906-.307-.7931-.778-1.5134-1.382-2.1145s-1.327-1.0697-2.124-1.3758-1.649-.4427-2.502-.4012c-.845-.0077-1.6852.1204-2.4887.3793v-5.89118c0-.20084 0-.22316-.2466-.22316zm8.6983 12.38494c.056.5846-.016 1.1743-.21 1.7288-.194.5546-.506 1.0609-.915 1.4845-.408.4236-.904.7546-1.453.9702-.548.2157-1.137.311-1.726.2795-.4231.0146-.8457-.0305-1.2557-.1339v-7.9665c.6389-.2282 1.3177-.3268 1.9947-.2901.505-.0101 1.005.0878 1.468.2869s.877.4949 1.215.8673.592.8128.744 1.2912c.152.4785.199.9839.138 1.4821z"/><path d="m118.816 19.1015c.936.0303 1.872-.007 2.802-.1116.052-.0049.101-.0277.137-.0643.037-.0367.06-.0849.065-.1365.1-.552.138-1.1134.112-1.6737.048-.7491-.063-1.4999-.325-2.2039-.261-.704-.668-1.3457-1.194-1.8838s-1.159-.9607-1.859-1.2406c-.699-.2798-1.45-.4108-2.204-.3844-.899.0146-1.785.2139-2.602.5854-.818.3715-1.55.9072-2.15 1.5735s-1.055 1.4488-1.337 2.2985c-.281.8496-.384 1.748-.3 2.6389-.084.9051.031 1.8176.338 2.6738.306.8562.797 1.6355 1.437 2.2835s1.415 1.1492 2.27 1.4685 1.77.4491 2.68.3803c1.424.0789 2.845-.1812 4.148-.7587.112 0 .157-.1339.157-.2901v-2.2315c0-.1339 0-.1562-.157 0-1.075.4366-2.225.6566-3.385.6471-2.78 0-4.036-1.5174-4.103-3.4142zm-5.47-2.3431c.046-.744.375-1.4424.921-1.9526s1.267-.7936 2.016-.7922c.331-.0029.66.0595.968.1838.307.1243.586.3079.822.5403.235.2324.422.5089.55.8136.127.3047.193.6315.193.9616v.2232h-5.47z"/></g></svg>