<svg fill="none" height="67" viewBox="0 0 56 67" width="56" xmlns="http://www.w3.org/2000/svg"><path d="m46.6372 64.3019c-3.6016 3.5269-7.5754 2.9771-11.363 1.3142-4.0269-1.6964-7.7083-1.8036-11.9611 0-5.2961 2.3066-8.1069 1.6361-11.2965-1.3142-18.00802-18.7072-15.35001-47.2039 5.1167-48.2767 4.9638.2682 8.4391 2.7692 11.3629 2.9771 4.3459-.8918 8.5057-3.4465 13.1572-3.1112 5.5885.4559 9.7748 2.6843 12.5591 6.685-11.4959 6.9733-8.7714 22.2609 1.7875 26.5522-2.1131 5.5987-4.8243 11.1305-9.3695 15.2206zm-18.5397-48.4779c-.5382-8.31429 6.14-15.15349 13.8217-15.824 1.0565 9.5883-8.6385 16.7628-13.8217 15.824z" fill="#000"/></svg>