<svg fill="none" height="46" viewBox="0 0 141 46" width="141" xmlns="http://www.w3.org/2000/svg"><g fill="#000"><path d="m60.3393 24.2074c0 3.0582-1.2259 5.9912-3.4078 8.1537-2.182 2.1625-5.1414 3.3774-8.2272 3.3774s-6.0452-1.2149-8.2272-3.3774c-2.1819-2.1625-3.4078-5.0955-3.4078-8.1537 0-3.0583 1.2259-5.9913 3.4078-8.1538 2.182-2.1625 5.1414-3.3773 8.2272-3.3773s6.0452 1.2148 8.2272 3.3773c2.1819 2.1625 3.4078 5.0955 3.4078 8.1538zm-5.0933 0c0-4.146-3.0277-6.9653-6.5417-6.9653s-6.5365 2.8296-6.5365 6.9653c0 4.1356 3.0225 6.9653 6.5365 6.9653s6.5365-2.8763 6.5365-6.9653z"/><path d="m85.4398 24.2074c0 3.0582-1.2258 5.9912-3.4078 8.1537-2.1819 2.1625-5.1413 3.3774-8.2271 3.3774s-6.0452-1.2149-8.2272-3.3774-3.4078-5.0955-3.4078-8.1537c0-3.0583 1.2258-5.9913 3.4078-8.1538s5.1414-3.3773 8.2272-3.3773 6.0452 1.2148 8.2271 3.3773c2.182 2.1625 3.4078 5.0955 3.4078 8.1538zm-5.0932 0c0-4.146-3.0277-6.9653-6.5417-6.9653s-6.5365 2.8296-6.5365 6.9653c0 4.1356 3.0277 6.9653 6.5417 6.9653s6.5313-2.8763 6.5313-6.9653z"/><path d="m109.494 13.4073v20.6367c0 8.489-5.052 11.9561-11.0235 11.9561-2.2002.0149-4.3548-.622-6.1874-1.8288-1.8327-1.2068-3.2598-2.9287-4.0984-4.9448l4.4344-1.8294c.7896 1.8709 2.7244 4.0786 5.841 4.0786 3.8229 0 6.1909-2.3373 6.1909-6.7372v-1.6532h-.177c-.767.8457-1.711 1.5157-2.766 1.9632s-2.1952.6618-3.3421.628c-5.7991 0-11.112-5.0063-11.112-11.4482 0-6.4418 5.3181-11.5155 11.1173-11.5155 1.1456-.0245 2.2828.194 3.3368.6409 1.053.4469 1.998 1.1119 2.771 1.9504h.178v-1.8917h4.837zm-4.477 10.8418c0-4.0476-2.724-7.0068-6.1909-7.0068s-6.458 2.9592-6.458 7.0068c0 4.0475 2.944 6.9238 6.458 6.9238 3.5139 0 6.1909-2.9126 6.1909-6.9238z"/><path d="m117.469 1.31104v33.68636h-4.968v-33.68636z"/><path d="m136.817 27.9909 3.953 2.5913c-1.06 1.5752-2.497 2.8651-4.184 3.7542-1.686.8891-3.569 1.3496-5.479 1.3402-6.589 0-11.504-5.0478-11.504-11.4948.005-6.8046 4.967-11.4689 10.939-11.4689s8.963 4.7472 9.935 7.3125l.523 1.306-15.504 6.359c1.187 2.3062 3.033 3.4826 5.621 3.4826 2.589 0 4.393-1.2645 5.71-3.1821zm-12.168-4.146 10.364-4.2652c-.57-1.4355-2.285-2.4358-4.304-2.4358-.844.0396-1.672.2454-2.435.6057-.764.3602-1.447.8675-2.01 1.4923s-.995 1.3545-1.271 2.1467c-.275.7921-.389 1.6306-.334 2.4667z"/><path d="m18.2656 21.2165v-4.8767h16.5818c.1724.9717.2547 1.9571.2457 2.9437 0 3.6588-1.0092 8.1831-4.2618 11.4015-3.1375 3.265-7.2058 5.0063-12.55 5.0063-9.93551.0052-18.2813-8.007-18.2813-17.8434 0-9.83641 8.34579-17.84857936 18.2708-17.84857936 2.2852-.03260124 4.554.38748336 6.6732 1.23559936 2.1192.84813 4.0461 2.1072 5.6677 3.70334l-3.4722 3.42046c-2.3836-2.27764-5.5789-3.52943-8.8896-3.48265-1.7095-.00013-3.4019.33605-4.9793.98906-1.5774.653-3.0083 1.60983-4.2097 2.81501-1.20144 1.20518-2.14954 2.63476-2.78934 4.20576-.63979 1.5711-.95854 3.2524-.93778 4.9465-.02076 1.694.29799 3.3753.93778 4.9464.6398 1.571 1.5879 3.0006 2.78934 4.2058 1.2014 1.2051 2.6323 2.162 4.2097 2.815s3.2698.9892 4.9793.989c4.7063 0 7.3784-1.8708 9.0936-3.5707 1.3909-1.3786 2.306-3.3479 2.6668-6.0376z"/></g></svg>