<svg fill="none" height="33" viewBox="0 0 125 33" width="125" xmlns="http://www.w3.org/2000/svg"><path d="m17.1822 30.8727c-1.8799.3231-3.7941.4197-5.773.6773l-6.03784-17.2739v18.0156c-1.87998.1932-3.59637.4507-5.37136.7083v-33h5.00879l6.86191 18.7215v-18.7215h5.3115zm10.3924-18.7872c2.046 0 5.1797-.0977 7.0609-.0977v5.1561c-2.3427 0-5.0808 0-7.0609.0978v7.6699c3.1019-.1932 6.2027-.452 9.3376-.5486v4.963l-14.6162 1.1281v-30.4541h14.6162v5.15618h-9.3376zm28.9675-6.92932h-5.4764v23.71912c-1.7823 0-3.5634 0-5.2786.0644v-23.78352h-5.4763v-5.15618h16.2362zm8.577 6.57402h7.2257v5.1562h-7.2257v11.6991h-5.1797v-28.5855h14.7481v5.15618h-9.5684zm18.1455 12.3431c3.003.0644 6.0379.2909 8.975.4507v5.093c-4.7182-.291-9.4365-.5807-14.2524-.6773v-28.9397h5.2774zm13.4284 5.8979c1.6822.0966 3.464.1931 5.18.3863v-30.3575h-5.18zm28.307-29.9712-6.697 15.6951 6.697 17.3049c-1.98-.2576-3.959-.6117-5.939-.9349l-3.794-9.5396-3.859 8.7657c-1.914-.3231-3.762-.4197-5.675-.6773l6.796-15.112-6.136-15.5019h5.674l3.464 8.66915 3.696-8.66915z" fill="#000"/></svg>