<svg fill="none" height="36" viewBox="0 0 99 36" width="99" xmlns="http://www.w3.org/2000/svg"><path d="m10.9193 35.9846c-2.94888-.1186-5.36547-.9428-7.24975-2.4728-.53813-.4742-1.04119-.9882-1.50507-1.538-.71646-.8905-1.269417-1.9057-1.632257-2.9968-1.069329-3.2634-.5181766-7.5458 1.571017-12.2439 1.79007-4.0253 4.55054-8.01451 9.36956-13.54173.7066-.81226 2.8264-3.19137 2.8264-3.19137s-.1107.204267-.2543.45179c-1.2513 2.14448-2.2259 4.44489-2.8995 6.84414-.9421 3.50377-.8243 6.51007.3321 8.84117.8132 1.6221 2.1084 2.9402 3.7003 3.7657 2.6922 1.3458 6.6327 1.4563 11.447.3244.3297-.0769 16.7489-4.5251 36.4867-9.8817 19.7379-5.35658 35.8861-9.737506 35.8885-9.7327.0024.004807-45.854 20.0254-69.6595 30.4117-3.7685 1.6438-4.7766 2.0595-6.5502 2.6939-4.5317 1.6246-8.59 2.4032-11.871 2.2662z" fill="#000"/></svg>