<svg fill="none" height="32" viewBox="0 0 133 32" width="133" xmlns="http://www.w3.org/2000/svg" xmlns:xlink="http://www.w3.org/1999/xlink"><clipPath id="a"><path d="m0 0h133v32h-133z"/></clipPath><g clip-path="url(#a)"><g fill="#000"><path d="m52.3652 11.4243h4.2096v13.3118h-4.2096z"/><path d="m57.4531 11.4244h4.0543v1.8215h.0771c.9818-1.4301 2.247-2.2107 4.0803-2.2107 2.8932 0 4.5972 2.0806 4.5972 5.0437v8.6584h-4.2095v-7.8012c0-1.4039-.6972-2.366-2.0657-2.366-1.3945 0-2.3241 1.1699-2.3241 2.8078v7.3583h-4.2096z"/><path d="m56.9949 7.86313c0-.50282-.1481-.99436-.4256-1.41244-.2774-.41809-.6718-.74394-1.1333-.93636-.4614-.19243-.9692-.24277-1.459-.14468-.4899.0981-.9399.34023-1.293.69578-.3532.35555-.5937.80855-.6911 1.30172-.0975.49316-.0475 1.00434.1437 1.46889.1911.46455.5148.86161.9301 1.14096.4152.2794.9035.4285 1.4029.4285.6698 0 1.3121-.2679 1.7857-.74467.4736-.47678.7396-1.12343.7396-1.7977z"/><path d="m99.8673 11.232c-.1199-.0104-.2574-.0157-.4169-.0157-1.6008 0-2.6858.702-3.6155 2.2874h-.0771v-2.0796h-4.0303v13.3118h4.2085v-5.9807c0-2.7711 1.5248-4.0554 3.9313-3.8308z"/><path d="m120.525 16.3376c-1.679-.3147-3.177-.4417-3.177-1.3776 0-.8321.801-1.2224 1.834-1.2224 1.162 0 1.962.3641 2.118 1.5602h3.873c-.208-2.6231-2.221-4.2641-5.965-4.2641-3.127 0-5.707 1.4563-5.707 4.2641 0 3.1195 2.453 3.7438 4.751 4.1341 1.756.3148 3.357.4417 3.357 1.6379 0 .8583-.8 1.3262-2.066 1.3262-1.265 0-2.109-.5414-2.367-1.6379h-4.01c.295 2.7365 2.681 4.3932 6.403 4.3932 3.461 0 6.017-1.5077 6.017-4.4194 0-3.4059-2.737-4.0039-5.061-4.3943z"/><path d="m106.399 14.0503c1.368 0 2.349 1.0136 2.501 2.6h-5.213c.283-1.5864 1.11-2.6 2.71-2.6zm.23 8.033c-1.731 0-2.71-1.1174-2.97-2.9116h9.504c.025-2.7039-.75-5.0175-2.324-6.4739-1.137-1.0398-2.635-1.6641-4.521-1.6641-4.028 0-6.7907 3.0428-6.7907 7.0205 0 4.0291 2.6857 7.0709 7.0497 7.0709 1.679 0 3.022-.4417 4.132-1.2213 1.162-.8058 1.937-1.9506 2.221-3.1478h-4.106c-.362.8321-1.085 1.3252-2.195 1.3252"/><path d="m133.001 21.5966c-.195.0073-.457.0188-.698.0188-.904 0-1.472-.2602-1.472-1.3v-6.2399h2.17v-2.6514h-2.17v-4.2117h-4.106v4.2117h-1.291v2.6514h1.291v7.1507c0 2.8592 1.756 3.665 4.209 3.665.692.0112 1.384-.04 2.067-.1532z"/><path d="m77.7805 21.6029c-.1678.0062-.3617.0125-.543.0125-.9036 0-1.4716-.2602-1.4716-1.3v-6.2399h2.0146v-2.6514h-2.0146v-4.2117h-4.1064v4.2117h-1.3695v2.6514h1.3695v7.1507c0 2.8592 1.7562 3.665 4.2095 3.665.6394.0073 1.2785-.0348 1.9115-.1259z"/><path d="m86.948 16.6507c-.1543-1.5864-1.136-2.6-2.5014-2.6-1.6019 0-2.4273 1.0136-2.7097 2.6zm-9.3738 1.4039c0-3.9777 2.763-7.0194 6.7911-7.0194 1.8854 0 3.3831.6232 4.5202 1.663 1.5748 1.4564 2.3491 3.77 2.3241 6.4739h-9.504c.2585 1.7942 1.2402 2.9117 2.9703 2.9117 1.11 0 1.8333-.4932 2.195-1.3253h4.1063c-.2845 1.1951-1.0589 2.3399-2.221 3.1478-1.111.7796-2.4534 1.2213-4.1324 1.2213-4.3638 0-7.0496-3.0428-7.0496-7.0709"/><path d="m45.0539 14.8825c1.6529 0 2.5826-.9884 2.5826-2.4699s-.9557-2.3923-2.5826-2.3923h-3.2309v4.8622zm-7.4894-8.73602h7.3101c2.246 0 3.899.62955 5.035 1.71553 1.1881 1.1185 1.8562 2.70389 1.8562 4.57579 0 3.5674-2.4534 6.0856-6.2534 6.0856h-3.6863v6.2137h-4.2616z"/></g><path d="m31.7857 16c0 3.1645-.9321 6.2579-2.6784 8.8891-1.7464 2.6312-4.2285 4.682-7.1325 5.893-2.9041 1.211-6.0996 1.5278-9.1825.9105-3.0829-.6174-5.91473-2.1413-8.13739-4.3789-2.22265-2.2376-3.736298-5.0886-4.349526-8.1923-.613229-3.1037-.29849788-6.3207.904396-9.24434 1.20289-2.92361 3.23991-5.42247 5.85348-7.18057 2.61356-1.758107 5.68624-2.69649 8.82954-2.69649 4.2151 0 8.2575 1.68571 11.238 4.68629s4.6549 7.07021 4.6549 11.31371z" fill="#fff"/><path d="m15.8946 0c-3.7038.00102106-7.29106 1.3041-10.14219 3.68422s-4.787202 5.68785-5.473877 9.35198c-.686675 3.6642-.080847 7.4547 1.712867 10.7171 1.79372 3.2623 4.66271 5.7917 8.1115 7.1513-.13857-1.2665-.26468-3.2128.0553-4.5947.2887-1.2496 1.8635-7.9533 1.8635-7.9533-.3233-.7491-.4853-1.5587-.4753-2.3755 0-2.2254 1.2809-3.8822 2.8755-3.8822 1.3549 0 2.0115 1.0251 2.0115 2.2538 0 1.3734-.8682 3.4258-1.3163 5.3281-.3742 1.5917.7931 2.8906 2.3533 2.8906 2.8244 0 4.9964-2.9987 4.9964-7.3269 0-3.8308-2.7348-6.50531-6.6389-6.50531-4.5222 0-7.17677 3.41531-7.17677 6.94391 0 1.3756.52111 2.8498 1.18292 3.6514.05629.0603.09607.1342.11543.2146.01937.0804.01766.1644-.00495.2439-.1209.5058-.38875 1.5928-.44191 1.8152-.06878.2928-.23033.3547-.53153.2099-1.98022-.9307-3.22567-3.8518-3.22567-6.199 0-5.0469 3.64777-9.68245 10.50138-9.68245 5.5134 0 9.7969 3.95567 9.7969 9.24075 0 5.5148-3.4539 9.9521-8.2471 9.9521-1.6112 0-3.1266-.8394-3.6425-1.8372 0 0-.7973 3.0554-.9902 3.8035-.3595 1.3903-1.3277 3.132-1.9802 4.197 2.185.6788 4.4898.8749 6.757.575 2.2671-.2998 4.4434-1.0886 6.3801-2.3125s3.5883-2.8541 4.8421-4.7793c1.2538-1.9251 2.0802-4.1 2.4228-6.3761.3427-2.2761.1935-4.5998-.4374-6.8125-.6308-2.21277-1.7285-4.26242-3.218-6.00909-1.4895-1.74666-3.3359-3.14921-5.413-4.11191s-4.3361-1.4628803-6.6227-1.4664z" fill="#000"/></g></svg>