<svg width="120" height="38" viewBox="0 0 120 38" fill="none" xmlns="http://www.w3.org/2000/svg">
<path d="M5.4375 25.8203C5.4375 28.0859 6.01562 29.9141 7.17188 31.3047C8.34375 32.6953 9.85156 33.3906 11.6953 33.3906C13.6172 33.3906 15.1016 32.75 16.1484 31.4688C17.2109 30.1875 17.7422 28.3672 17.7422 26.0078C17.7422 23.6484 17.1875 21.8125 16.0781 20.5C14.9844 19.1875 13.4766 18.5312 11.5547 18.5312C9.63281 18.5312 8.13281 19.1719 7.05469 20.4531C5.97656 21.7188 5.4375 23.5078 5.4375 25.8203ZM5.60156 0.671875V18.4141C6.17969 17.0078 7.125 15.9219 8.4375 15.1562C9.07812 14.7969 9.79688 14.5156 10.5938 14.3125C11.3906 14.1094 12.2344 14.0078 13.125 14.0078C16.0938 14.0078 18.4922 15.1016 20.3203 17.2891C22.1484 19.4609 23.0625 22.3203 23.0625 25.8672C23.0625 29.6016 22.1641 32.5469 20.3672 34.7031C18.5703 36.8438 16.0938 37.9141 12.9375 37.9141C11.3906 37.9141 10 37.6016 8.76562 36.9766C7.54688 36.3516 6.49219 35.3984 5.60156 34.1172V37H0.515625V0.671875H5.60156ZM49.8516 26.6406H32.0859C32.0859 27.6562 32.2422 28.5625 32.5547 29.3594C32.8672 30.1562 33.3281 30.875 33.9375 31.5156C35.0469 32.6719 36.5234 33.25 38.3672 33.25C40.0234 33.25 41.3828 32.9141 42.4453 32.2422C43.5234 31.5547 44.4844 30.4375 45.3281 28.8906L49.6172 31.2812C48.3828 33.5 46.8359 35.1641 44.9766 36.2734C44.0703 36.8047 43.0703 37.2109 41.9766 37.4922C40.8984 37.7734 39.7344 37.9141 38.4844 37.9141C34.9219 37.9141 32.0859 36.8359 29.9766 34.6797C27.8672 32.5078 26.8125 29.6016 26.8125 25.9609C26.8125 22.4766 27.8984 19.6172 30.0703 17.3828C32.2578 15.1328 35.0625 14.0078 38.4844 14.0078C42.0625 14.0078 44.8516 15.0312 46.8516 17.0781C48.8516 19.125 49.8516 21.9922 49.8516 25.6797V26.6406ZM44.5781 23.2188C44.3906 21.6406 43.7812 20.4297 42.75 19.5859C41.7344 18.7422 40.3438 18.3203 38.5781 18.3203C36.9062 18.3203 35.5625 18.7266 34.5469 19.5391C33.5469 20.3359 32.8359 21.5625 32.4141 23.2188H44.5781ZM60.2578 18.3203C60.8047 16.8672 61.5234 15.7891 62.4141 15.0859C63.3047 14.3672 64.4219 14.0078 65.7656 14.0078C66.5312 14.0078 67.2344 14.0938 67.875 14.2656C68.625 14.4375 69.3125 14.6875 69.9375 15.0156L68.1094 19.3281C67.7188 19.0469 67.2422 18.8281 66.6797 18.6719C66.1328 18.5 65.5703 18.4141 64.9922 18.4141C63.3203 18.4141 62.1094 19.0938 61.3594 20.4531C60.625 21.7969 60.2578 24.0625 60.2578 27.25V37H55.1719V14.7344H60.2578V18.3203ZM73.0781 37V0.671875H78.1641V37H73.0781ZM85.0078 5.17188C85.0078 4.32812 85.3281 3.59375 85.9688 2.96875C86.6094 2.32813 87.3594 2.00781 88.2188 2.00781C89.1094 2.00781 89.8594 2.3125 90.4688 2.92188C91.0781 3.51562 91.3828 4.26562 91.3828 5.17188C91.3828 6.04687 91.0781 6.80469 90.4688 7.44531C89.8594 8.07031 89.1094 8.38281 88.2188 8.38281C87.3438 8.38281 86.5859 8.0625 85.9453 7.42188C85.3203 6.78125 85.0078 6.03125 85.0078 5.17188ZM85.6875 37V14.7812H90.7734V37H85.6875ZM98.0625 37V14.7812H102.844V18.4141C103.828 16.9141 105.008 15.8047 106.383 15.0859C107.773 14.3672 109.461 14.0078 111.445 14.0078C113.102 14.0078 114.508 14.2734 115.664 14.8047C116.836 15.3203 117.75 16.0938 118.406 17.125C118.781 17.7344 119.062 18.4453 119.25 19.2578C119.328 19.6328 119.391 20.1797 119.438 20.8984C119.484 21.6016 119.508 22.4766 119.508 23.5234V37H114.375V25.5859C114.375 22.6797 114.016 20.7422 113.297 19.7734C112.594 18.8047 111.336 18.3203 109.523 18.3203C108.336 18.3203 107.273 18.5391 106.336 18.9766C105.414 19.3984 104.688 20.0156 104.156 20.8281C103.797 21.3281 103.539 22.0078 103.383 22.8672C103.227 23.7109 103.148 25.0469 103.148 26.875V37H98.0625Z" fill="black"/>
</svg>
